:SAMPLES-PER-SECOND 30
:FULLY-SPECIFIED
:DEGREES
84
root  -41.304 36.8568 -30.6756 46.0059 -86.3456 -4.52829
RightUpLeg  -81.5033 -19.2958 25.7858
RightLeg  41.0666 4.7176 4.10031
RightFoot  0.548353 1.30682 -12.4529
RightToes  0.00048216 0.542163 -0.142577
Spine  72.613 -4.96249 7.66934
Spine1  2.2432 1.5214 -6.33296
HEad  -42.0467 -5.65749 1.35596
LeftShoulder1  6.96813 -23.7901 -18.8623
LeftArm  -97.2074 -66.1787 35.9471
LeftForeArm  1.51658 -18.5924 -2.21187
LeftHand  -0.25398 0.0180481 5.50724
RightShoulder  3.46352 16.164 10.3464
RightArm  -74.6784 48.2305 -20.1427
RightForeArm  -15.559 18.0584 3.85867
RightHand  1.36185 7.46951 11.7449
LeftUpLeg  -82.34 21.3955 -27.1135
LeftLeg  43.6272 -4.43436 -4.11612
LeftFoot  -0.730429 -0.702131 7.59714
LeftToes  1.06243e-005 4.65856e-005 -8.18503e-006
85
root  -41.2051 37.1187 -30.5817 43.1048 -86.1138 -2.18907
RightUpLeg  -80.3744 -20.3906 26.5225
RightLeg  39.0334 5.30079 4.3138
RightFoot  1.29559 1.43488 -12.8144
RightToes  0.00048216 0.542163 -0.142577
Spine  71.7714 -4.94013 7.66875
Spine1  2.64954 1.51732 -5.95968
HEad  -41.5464 -5.87321 1.05263
LeftShoulder1  6.99979 -23.9033 -18.8699
LeftArm  -92.8269 -65.878 31.2524
LeftForeArm  3.32329 -19.6773 -2.94993
LeftHand  -0.25398 0.0180481 5.50724
RightShoulder  3.67388 16.6385 11.0427
RightArm  -70.0425 46.5853 -17.7291
RightForeArm  -15.2005 20.999 5.07101
RightHand  1.16018 7.02058 10.3321
LeftUpLeg  -80.8507 21.5632 -27.4528
LeftLeg  41.6303 -4.86546 -4.22985
LeftFoot  0.160966 -0.789239 7.81029
LeftToes  1.06243e-005 4.65856e-005 -8.18503e-006
86
root  -41.0707 37.4257 -30.4727 40.9582 -85.9447 -0.937897
RightUpLeg  -78.622 -21.4912 26.8726
RightLeg  36.5575 5.96324 4.46634
RightFoot  2.05417 1.47081 -12.3458
RightToes  0.00048216 0.542163 -0.142577
Spine  70.7523 -4.9395 7.51374
Spine1  3.18709 1.3999 -5.91072
HEad  -41.017 -5.92888 0.835714
LeftShoulder1  6.87348 -23.8914 -18.3871
LeftArm  -87.4234 -65.3835 25.3062
LeftForeArm  3.80045 -20.5786 -3.52419
LeftHand  -0.25398 0.0180481 5.50724
RightShoulder  3.80226 16.8288 11.5512
RightArm  -63.8598 44.9899 -13.5266
RightForeArm  -15.6547 24.7289 6.07354
RightHand  0.948116 5.95199 9.23971
LeftUpLeg  -78.9037 22.0737 -27.9082
LeftLeg  39.2071 -5.60896 -4.51145
LeftFoot  1.15919 -0.930897 8.41702
LeftToes  1.06243e-005 4.65856e-005 -8.18503e-006
87
root  -40.9139 37.7622 -30.358 39.6716 -85.7922 -0.964355
RightUpLeg  -76.2121 -22.5348 26.6972
RightLeg  33.8237 6.51609 4.42854
RightFoot  3.11856 1.52514 -11.7989
RightToes  0.00048216 0.542163 -0.142577
Spine  69.6717 -4.93592 7.34428
Spine1  3.70885 1.23023 -6.00471
HEad  -40.3723 -5.63149 0.41795
LeftShoulder1  6.89683 -23.8377 -18.5329
LeftArm  -80.7809 -64.4462 18.1372
LeftForeArm  3.41401 -22.3142 -4.39799
LeftHand  -0.25398 0.0180481 5.50724
RightShoulder  3.90122 16.4616 12.4855
RightArm  -57.62 43.7568 -8.44781
RightForeArm  -17.2351 28.9213 7.13861
RightHand  0.774808 4.1859 9.02459
LeftUpLeg  -76.4518 22.8888 -28.1776
LeftLeg  36.525 -6.48439 -4.77123
LeftFoot  2.24061 -1.08157 8.95021
LeftToes  1.06243e-005 4.65856e-005 -8.18503e-006
88
root  -40.7291 38.1148 -30.2546 37.8771 -85.4393 -0.93541
RightUpLeg  -73.2249 -23.8129 26.2683
RightLeg  30.8129 7.05459 4.28316
RightFoot  4.4455 1.61854 -11.4065
RightToes  0.00048216 0.542163 -0.142577
Spine  68.4928 -4.87014 7.24543
Spine1  4.22281 1.13907 -5.80446
HEad  -39.4094 -5.22206 -0.434677
LeftShoulder1  7.03117 -23.7515 -19.1488
LeftArm  -71.9416 -63.0076 9.43299
LeftForeArm  2.52412 -25.0233 -5.24888
LeftHand  -0.25398 0.0180481 5.50724
RightShoulder  4.05449 15.8339 14.0598
RightArm  -51.7375 42.5572 -3.60033
RightForeArm  -20.4535 32.9553 8.35815
RightHand  0.586406 1.94524 9.06637
LeftUpLeg  -73.3617 23.6716 -27.8678
LeftLeg  33.658 -7.26689 -4.83079
LeftFoot  3.46562 -1.2074 9.11028
LeftToes  1.06243e-005 4.65856e-005 -8.18503e-006
89
root  -40.5132 38.4571 -30.1739 35.4893 -84.829 -0.726746
RightUpLeg  -69.7951 -25.4597 25.8303
RightLeg  27.6391 7.67191 4.11098
RightFoot  5.5474 1.64488 -10.7824
RightToes  0.00048216 0.542163 -0.142577
Spine  66.9993 -4.67408 7.20531
Spine1  4.93156 1.15064 -5.22989
HEad  -38.3169 -5.01412 -1.54144
LeftShoulder1  7.09062 -23.6218 -19.5178
LeftArm  -62.1737 -61.1896 0.116468
LeftForeArm  1.63549 -27.3494 -5.805
LeftHand  -0.25398 0.0180481 5.50724
RightShoulder  4.24018 15.3796 15.69
RightArm  -46.1874 40.562 0.96783
RightForeArm  -24.6625 36.6879 9.65837
RightHand  0.353594 -0.535473 8.59525
LeftUpLeg  -69.7111 24.2861 -26.9429
LeftLeg  30.7636 -7.92526 -4.72432
LeftFoot  4.77036 -1.33082 9.17494
LeftToes  1.06243e-005 4.65856e-005 -8.18503e-006
90
root  -40.2871 38.7583 -30.1216 34.0115 -84.114 -1.82091
RightUpLeg  -65.8584 -27.0674 25.0618
RightLeg  24.6682 8.07259 3.79955
RightFoot  6.22171 1.60043 -10.0482
RightToes  0.00048216 0.542163 -0.142577
Spine  65.1363 -4.36048 7.22756
Spine1  5.92948 1.20453 -4.62223
HEad  -37.3602 -5.01164 -2.60033
LeftShoulder1  7.17179 -23.4379 -20.0343
LeftArm  -52.7947 -59.3095 -7.76619
LeftForeArm  0.340781 -27.9003 -6.00521
LeftHand  -0.25398 0.0180481 5.50724
RightShoulder  4.38824 15.1361 16.8781
RightArm  -40.9343 37.392 5.62132
RightForeArm  -28.3058 40.3864 11.0595
RightHand  0.128377 -2.99695 7.48245
LeftUpLeg  -65.7737 24.9846 -25.5475
LeftLeg  28.1906 -8.59979 -4.63208
LeftFoot  5.91298 -1.44786 9.28374
LeftToes  1.06243e-005 4.65856e-005 -8.18503e-006
91
root  -40.0793 39.0093 -30.1047 33.8656 -83.3626 -4.60587
RightUpLeg  -61.2709 -28.1685 23.5203
RightLeg  22.0994 7.84239 3.33348
RightFoot  6.80956 1.63029 -9.87778
RightToes  0.00048216 0.542163 -0.142577
Spine  63.1309 -4.03971 7.3271
Spine1  6.93541 1.28092 -4.23272
HEad  -36.2419 -4.91495 -3.65863
LeftShoulder1  7.48839 -23.1717 -21.5853
LeftArm  -43.251 -57.1539 -13.7208
LeftForeArm  -1.83689 -27.1581 -5.94307
LeftHand  -0.25398 0.0180481 5.50724
RightShoulder  4.48878 14.8567 17.8641
RightArm  -35.8021 33.4185 10.3298
RightForeArm  -30.6035 44.1541 12.6016
RightHand  -0.0259042 -5.07251 5.89647
LeftUpLeg  -61.7133 25.9432 -23.7113
LeftLeg  26.1579 -9.41267 -4.66849
LeftFoot  6.67705 -1.49528 9.15341
LeftToes  1.06243e-005 4.65856e-005 -8.18503e-006
92
root  -39.8972 39.2245 -30.132 33.6652 -82.4273 -7.53961
RightUpLeg  -55.8916 -28.419 20.6117
RightLeg  19.7979 6.14086 3.00172
RightFoot  7.46358 1.70853 -9.97689
RightToes  0.00048216 0.542163 -0.142577
Spine  61.1881 -3.80566 7.44203
Spine1  7.47803 1.34989 -3.92077
HEad  -34.4186 -4.37095 -5.03245
LeftShoulder1  8.02213 -22.8225 -24.1161
LeftArm  -33.7182 -53.5727 -19.0128
LeftForeArm  -3.83142 -27.1915 -6.05322
LeftHand  -0.25398 0.0180481 5.50724
RightShoulder  4.62636 14.4623 19.2756
RightArm  -30.8141 28.9944 14.5953
RightForeArm  -31.6229 47.9157 14.3205
RightHand  -0.0754894 -6.17306 3.64607
LeftUpLeg  -57.5204 26.9212 -21.5099
LeftLeg  24.4701 -10.394 -4.80316
LeftFoot  7.1802 -1.4783 8.7786
LeftToes  1.06243e-005 4.65856e-005 -8.18503e-006
93
root  -39.7328 39.4238 -30.2123 32.0857 -81.173 -9.06932
RightUpLeg  -49.8999 -27.3052 16.0481
RightLeg  17.8469 2.52625 2.84305
RightFoot  7.79769 1.5564 -8.88749
RightToes  0.00048216 0.542163 -0.142577
Spine  59.4786 -3.71376 7.40349
Spine1  7.14851 1.19629 -3.41234
HEad  -31.8814 -2.93315 -6.95379
LeftShoulder1  8.50237 -22.1245 -26.9627
LeftArm  -26.2056 -47.6846 -24.0484
LeftForeArm  -4.25274 -29.502 -6.64234
LeftHand  -0.25398 0.0180481 5.50724
RightShoulder  4.86242 14.1416 21.2044
RightArm  -26.2569 24.0777 18.1081
RightForeArm  -31.2254 51.7658 16.3363
RightHand  -0.0518235 -6.08513 0.76957
LeftUpLeg  -53.2422 27.5907 -19.2162
LeftLeg  22.7742 -11.4983 -4.92962
LeftFoot  7.84162 -1.48435 8.48285
LeftToes  1.06243e-005 4.65856e-005 -8.18503e-006
94
root  -39.5869 39.6154 -30.354 29.5921 -79.6266 -9.55994
RightUpLeg  -44.3163 -24.7828 11.3841
RightLeg  16.7666 -0.55819 2.24364
RightFoot  7.6055 1.07659 -6.12592
RightToes  0.00048216 0.542163 -0.142577
Spine  58.0514 -3.81738 7.13592
Spine1  6.20005 0.621662 -2.621
HEad  -29.2128 -0.120037 -9.64206
LeftShoulder1  8.72836 -20.6388 -30.0119
LeftArm  -21.6759 -40.1984 -27.7907
LeftForeArm  -3.10817 -33.7382 -7.68806
LeftHand  -0.25398 0.0180481 5.50724
RightShoulder  5.12172 14.0219 22.9873
RightArm  -22.4478 18.9292 21.066
RightForeArm  -29.2023 55.7975 18.8442
RightHand  -0.0318183 -5.86207 -1.84007
LeftUpLeg  -49.0565 27.972 -16.994
LeftLeg  21.0424 -12.6405 -4.99274
LeftFoot  8.8445 -1.50545 8.14071
LeftToes  1.06243e-005 4.65856e-005 -8.18503e-006
95
root  -39.4682 39.7911 -30.566 27.0768 -77.8897 -9.974
RightUpLeg  -39.1741 -19.9429 6.68091
RightLeg  16.6481 -1.41446 1.20619
RightFoot  7.12617 0.542679 -3.0414
RightToes  0.00048216 0.542163 -0.142577
Spine  55.5066 -3.723 7.34828
Spine1  7.01694 0.504389 -1.77369
HEad  -27.2285 2.82913 -13.094
LeftShoulder1  9.27003 -20.0591 -33.2357
LeftArm  -19.72 -33.0368 -29.5854
LeftForeArm  -0.787927 -38.0845 -8.82738
LeftHand  -0.25398 0.0180481 5.50724
RightShoulder  5.25014 13.3363 25.0436
RightArm  -20.0994 14.1885 22.1697
RightForeArm  -26.2569 59.9082 22.0576
RightHand  -0.000976869 -6.90427 -3.37039
LeftUpLeg  -45.0855 28.2991 -14.7645
LeftLeg  19.5406 -13.8313 -5.06625
LeftFoot  9.87749 -1.4449 7.3806
LeftToes  1.06243e-005 4.65856e-005 -8.18503e-006
96
root  -39.3809 39.9279 -30.8639 24.1963 -76.006 -10.0252
RightUpLeg  -34.5885 -12.699 2.15492
RightLeg  17.3492 0.802697 0.603651
RightFoot  5.9612 0.110187 -0.451311
RightToes  0.00048216 0.542163 -0.142577
Spine  53.3174 -3.79743 7.48699
Spine1  7.41488 0.351115 -1.35214
HEad  -25.5888 7.22818 -17.1253
LeftShoulder1  9.63982 -19.28 -36.1728
LeftArm  -18.2655 -25.7915 -29.9392
LeftForeArm  1.38103 -42.4836 -10.1682
LeftHand  -0.25398 0.0180481 5.50724
RightShoulder  5.24386 12.4422 26.8306
RightArm  -17.936 9.89274 23.0825
RightForeArm  -22.5081 63.7699 26.029
RightHand  0.0661233 -9.08335 -3.95064
LeftUpLeg  -41.142 28.2422 -12.2065
LeftLeg  18.3532 -14.7785 -5.30797
LeftFoot  10.669 -1.33595 6.52443
LeftToes  1.06243e-005 4.65856e-005 -8.18503e-006
